<?xml version="1.0" encoding="UTF-8"?>
<!DOCTYPE svg PUBLIC "-//W3C//DTD SVG 1.1//EN" "http://www.w3.org/Graphics/SVG/1.1/DTD/svg11.dtd">
<!-- Creator: CorelDRAW X7 -->
<svg xmlns="http://www.w3.org/2000/svg" xml:space="preserve" width="90mm" height="60mm" version="1.1" style="shape-rendering:geometricPrecision; text-rendering:geometricPrecision; image-rendering:optimizeQuality; fill-rule:evenodd; clip-rule:evenodd"
viewBox="0 0 9349 6233"
 xmlns:xlink="http://www.w3.org/1999/xlink">
 <defs>
  <style type="text/css">
   <![CDATA[
    .fil0 {fill:#F2930C}
    .fil1 {fill:black;fill-rule:nonzero}
   ]]>
  </style>
 </defs>
 <g id="Слой_x0020_1">
  <metadata id="CorelCorpID_0Corel-Layer"/>
  <rect class="fil0" width="9349" height="6233"/>
  <path class="fil1" d="M2884 2476c19,0 38,0 58,1l0 -400c0,-17 2,-35 6,-51 10,-113 105,-201 220,-201l2863 0c122,0 221,99 221,221 0,6 0,11 -1,16 1,5 1,10 1,15l0 405c56,-4 112,-6 169,-6 502,0 960,161 1294,421 349,272 565,652 565,1076 0,423 -216,803 -565,1075 -334,260 -792,421 -1294,421 -502,0 -959,-161 -1294,-421 -215,-168 -380,-377 -475,-612 -94,235 -259,444 -475,612 -334,260 -791,421 -1293,421 -502,0 -960,-161 -1294,-421 -349,-272 -565,-652 -565,-1075 0,-17 0,-34 1,-51l0 -2716 0 -154c0,-96 0,-192 0,-288l770 0 5633 0 674 0c123,0 222,99 222,221 0,122 -99,221 -222,221l-674 0 -5633 0 -328 0 0 1796c38,-37 79,-72 122,-105 334,-260 792,-421 1294,-421zm-1416 1456l0 80 0 1c14,265 161,507 393,688 259,201 620,326 1023,326 19,0 38,-1 58,-1l0 -2107c-20,0 -39,-1 -58,-1 -403,0 -764,125 -1023,326 -232,181 -379,423 -393,688zm4342 -1665l-2426 0 0 264c303,68 575,196 793,366 216,168 381,377 475,612 95,-235 260,-444 475,-612 192,-149 424,-266 683,-338l0 -292zm442 659l0 2093c55,5 112,8 169,8 403,0 764,-125 1023,-326 243,-190 394,-448 394,-728 0,-281 -151,-539 -394,-729 -259,-201 -620,-326 -1023,-326 -57,0 -114,3 -169,8zm-442 1997l0 -1901c-155,55 -294,131 -411,222 -244,190 -395,448 -395,729 0,280 151,538 395,728 117,91 256,167 411,222zm-2426 -1937l0 1973c199,-56 377,-145 522,-258 244,-190 395,-448 395,-728 0,-281 -151,-539 -395,-729 -145,-113 -323,-202 -522,-258z"/>
 </g>
</svg>
